<svg xmlns="http://www.w3.org/2000/svg" width="100" height="100" viewBox="0 0 100 100" fill="none">
  <rect width="100" height="100" fill="url(#paint0_radial)" rx="14"/>
  <path fill="url(#paint1_linear)" d="M26.5 22c-.5523 0-1 .4477-1 1v55.12c0 .5523.4477 1 1 1h6.7c.5523 0 1-.4477 1-1V33.3837c0-.0572.0464-.1037.1037-.1037.0351 0 .0678.0177.087.0471l29.5135 45.3385c.1845.2834.4998.4544.8381.4544H71.52c.5523 0 1-.4477 1-1V23c0-.5523-.4477-1-1-1h-5.2c-.5523 0-1 .4477-1 1v45.2163c0 .0573-.0464.1037-.1037.1037-.0351 0-.0678-.0178-.087-.0472L35.3757 22.4554c-.1844-.284-.5-.4554-.8387-.4554H26.5z" filter="url(#filter0_d)"/>
  <defs>
    <filter id="filter0_d" width="57.02" height="67.12" x="22.5" y="19" color-interpolation-filters="sRGB" filterUnits="userSpaceOnUse">
      <feFlood flood-opacity="0" result="BackgroundImageFix"/>
      <feColorMatrix in="SourceAlpha" values="0 0 0 0 0 0 0 0 0 0 0 0 0 0 0 0 0 0 127 0"/>
      <feOffset dx="2" dy="2"/>
      <feGaussianBlur stdDeviation="2.5"/>
      <feColorMatrix values="0 0 0 0 0 0 0 0 0 0 0 0 0 0 0 0 0 0 0.25 0"/>
      <feBlend in2="BackgroundImageFix" result="effect1_dropShadow"/>
      <feBlend in="SourceGraphic" in2="effect1_dropShadow" result="shape"/>
    </filter>
    <radialGradient id="paint0_radial" cx="0" cy="0" r="1" gradientTransform="matrix(0 50 -50 0 50 50)" gradientUnits="userSpaceOnUse">
      <stop stop-color="#80B1FE"/>
      <stop offset="1" stop-color="#80B1FE" stop-opacity=".36"/>
    </radialGradient>
    <linearGradient id="paint1_linear" x1="27" x2="73" y1="23.5" y2="79" gradientUnits="userSpaceOnUse">
      <stop stop-color="#0162FE"/>
      <stop offset="1" stop-color="#000A19" stop-opacity="0"/>
    </linearGradient>
  </defs>
</svg>